<svg width="2642" height="1082" viewBox="0 0 2642 1082" fill="none" xmlns="http://www.w3.org/2000/svg">
<path d="M0.701172 961.039H120.701M0.701172 961.039V1081.04H120.701M0.701172 961.039V841.039M120.701 961.039V1081.04M120.701 961.039V841.039M120.701 961.039H240.701M120.701 1081.04H240.701M0.701172 841.039H120.701M0.701172 841.039V721.039M120.701 841.039V721.039M120.701 841.039H240.701M0.701172 721.039H120.701M0.701172 721.039V601.039M120.701 721.039V601.039M120.701 721.039H240.701M0.701172 601.039H120.701M0.701172 601.039V481.039M120.701 601.039V481.039M120.701 601.039H240.701M0.701172 481.039H120.701M0.701172 481.039V361.039M120.701 481.039V361.039M120.701 481.039H240.701M0.701172 361.039H120.701M0.701172 361.039V241.039M120.701 361.039V241.039M120.701 361.039H240.701M0.701172 241.039H120.701M0.701172 241.039V121.039M120.701 241.039V121.039M120.701 241.039H240.701M0.701172 121.039H120.701M0.701172 121.039V1.03857H120.701M120.701 121.039V1.03857M120.701 121.039H240.701M120.701 1.03857H240.701M240.701 961.039V1081.04M240.701 961.039V841.039M240.701 961.039H360.701M240.701 1081.04H360.701M240.701 841.039V721.039M240.701 841.039H360.701M240.701 721.039V601.039M240.701 721.039H360.701M240.701 601.039V481.039M240.701 601.039H360.701M240.701 481.039V361.039M240.701 481.039H360.701M240.701 361.039V241.039M240.701 361.039H360.701M240.701 241.039V121.039M240.701 241.039H360.701M240.701 121.039V1.03857M240.701 121.039H360.701M240.701 1.03857H360.701M360.701 961.039V1081.04M360.701 961.039V841.039M360.701 961.039H480.701M360.701 1081.04H480.701M360.701 841.039V721.039M360.701 841.039H480.701M360.701 721.039V601.039M360.701 721.039H480.701M360.701 601.039V481.039M360.701 601.039H480.701M360.701 481.039V361.039M360.701 481.039H480.701M360.701 361.039V241.039M360.701 361.039H480.701M360.701 241.039V121.039M360.701 241.039H480.701M360.701 121.039V1.03857M360.701 121.039H480.701M360.701 1.03857H480.701M480.701 961.039V1081.04M480.701 961.039V841.039M480.701 961.039H600.701M480.701 1081.04H600.701M480.701 841.039V721.039M480.701 841.039H600.701M480.701 721.039V601.039M480.701 721.039H600.701M480.701 601.039V481.039M480.701 601.039H600.701M480.701 481.039V361.039M480.701 481.039H600.701M480.701 361.039V241.039M480.701 361.039H600.701M480.701 241.039V121.039M480.701 241.039H600.701M480.701 121.039V1.03857M480.701 121.039H600.701M480.701 1.03857H600.701M600.701 961.039V1081.04M600.701 961.039V841.039M600.701 961.039H720.701M600.701 1081.04H720.701M600.701 841.039V721.039M600.701 841.039H720.701M600.701 721.039V601.039M600.701 721.039H720.701M600.701 601.039V481.039M600.701 601.039H720.701M600.701 481.039V361.039M600.701 481.039H720.701M600.701 361.039V241.039M600.701 361.039H720.701M600.701 241.039V121.039M600.701 241.039H720.701M600.701 121.039V1.03857M600.701 121.039H720.701M600.701 1.03857H720.701M720.701 961.039V1081.04M720.701 961.039V841.039M720.701 961.039H840.701M720.701 1081.04H840.701M720.701 841.039V721.039M720.701 841.039H840.701M720.701 721.039V601.039M720.701 721.039H840.701M720.701 601.039V481.039M720.701 601.039H840.701M720.701 481.039V361.039M720.701 481.039H840.701M720.701 361.039V241.039M720.701 361.039H840.701M720.701 241.039V121.039M720.701 241.039H840.701M720.701 121.039V1.03857M720.701 121.039H840.701M720.701 1.03857H840.701M840.701 961.039V1081.04M840.701 961.039V841.039M840.701 961.039H960.701M840.701 1081.04H960.701M840.701 841.039V721.039M840.701 841.039H960.701M840.701 721.039V601.039M840.701 721.039H960.701M840.701 601.039V481.039M840.701 601.039H960.701M840.701 481.039V361.039M840.701 481.039H960.701M840.701 361.039V241.039M840.701 361.039H960.701M840.701 241.039V121.039M840.701 241.039H960.701M840.701 121.039V1.03857M840.701 121.039H960.701M840.701 1.03857H960.701M960.701 961.039V1081.04M960.701 961.039V841.039M960.701 961.039H1080.7M960.701 1081.04H1080.7M960.701 841.039V721.039M960.701 841.039H1080.7M960.701 721.039V601.039M960.701 721.039H1080.7M960.701 601.039V481.039M960.701 601.039H1080.7M960.701 481.039V361.039M960.701 481.039H1080.7M960.701 361.039V241.039M960.701 361.039H1080.7M960.701 241.039V121.039M960.701 241.039H1080.7M960.701 121.039V1.03857M960.701 121.039H1080.7M960.701 1.03857H1080.7M1080.7 961.039V1081.04M1080.7 961.039V841.039M1080.7 961.039H1200.7M1080.7 1081.04H1200.7M1080.7 841.039V721.039M1080.7 841.039H1200.7M1080.7 721.039V601.039M1080.7 721.039H1200.7M1080.7 601.039V481.039M1080.7 601.039H1200.7M1080.7 481.039V361.039M1080.7 481.039H1200.7M1080.7 361.039V241.039M1080.7 361.039H1200.7M1080.7 241.039V121.039M1080.7 241.039H1200.7M1080.7 121.039V1.03857M1080.7 121.039H1200.7M1080.7 1.03857H1200.7M1200.7 961.039V1081.04M1200.7 961.039V841.039M1200.7 961.039H1320.7M1200.7 1081.04H1320.7M1200.7 841.039V721.039M1200.7 841.039H1320.7M1200.7 721.039V601.039M1200.7 721.039H1320.7M1200.7 601.039V481.039M1200.7 601.039H1320.7M1200.7 481.039V361.039M1200.7 481.039H1320.7M1200.7 361.039V241.039M1200.7 361.039H1320.7M1200.7 241.039V121.039M1200.7 241.039H1320.7M1200.7 121.039V1.03857M1200.7 121.039H1320.7M1200.7 1.03857H1320.7M1320.7 961.039V1081.04M1320.7 961.039V841.039M1320.7 961.039H1440.7M1320.7 1081.04H1440.7M1320.7 841.039V721.039M1320.7 841.039H1440.7M1320.7 721.039V601.039M1320.7 721.039H1440.7M1320.7 601.039V481.039M1320.7 601.039H1440.7M1320.7 481.039V361.039M1320.7 481.039H1440.7M1320.7 361.039V241.039M1320.7 361.039H1440.7M1320.7 241.039V121.039M1320.7 241.039H1440.7M1320.7 121.039V1.03857M1320.7 121.039H1440.7M1320.7 1.03857H1440.7M1440.7 961.039V1081.04M1440.7 961.039V841.039M1440.7 961.039H1560.7M1440.7 1081.04H1560.7M1440.7 841.039V721.039M1440.7 841.039H1560.7M1440.7 721.039V601.039M1440.7 721.039H1560.7M1440.7 601.039V481.039M1440.7 601.039H1560.7M1440.7 481.039V361.039M1440.7 481.039H1560.7M1440.7 361.039V241.039M1440.7 361.039H1560.7M1440.7 241.039V121.039M1440.7 241.039H1560.7M1440.7 121.039V1.03857M1440.7 121.039H1560.7M1440.7 1.03857H1560.7M1560.7 961.039V1081.04M1560.7 961.039V841.039M1560.7 961.039H1680.7M1560.7 1081.04H1680.7M1560.7 841.039V721.039M1560.7 841.039H1680.7M1560.7 721.039V601.039M1560.7 721.039H1680.7M1560.7 601.039V481.039M1560.7 601.039H1680.7M1560.7 481.039V361.039M1560.7 481.039H1680.7M1560.7 361.039V241.039M1560.7 361.039H1680.7M1560.7 241.039V121.039M1560.7 241.039H1680.7M1560.7 121.039V1.03857M1560.7 121.039H1680.7M1560.7 1.03857H1680.7M1680.7 961.039V1081.04M1680.7 961.039V841.039M1680.7 961.039H1800.7M1680.7 1081.04H1800.7M1680.7 841.039V721.039M1680.7 841.039H1800.7M1680.7 721.039V601.039M1680.7 721.039H1800.7M1680.7 601.039V481.039M1680.7 601.039H1800.7M1680.7 481.039V361.039M1680.7 481.039H1800.7M1680.7 361.039V241.039M1680.7 361.039H1800.7M1680.7 241.039V121.039M1680.7 241.039H1800.7M1680.7 121.039V1.03857M1680.7 121.039H1800.7M1680.7 1.03857H1800.7M1800.7 961.039V1081.04M1800.7 961.039V841.039M1800.7 961.039H1920.7M1800.7 1081.04H1920.7M1800.7 841.039V721.039M1800.7 841.039H1920.7M1800.7 721.039V601.039M1800.7 721.039H1920.7M1800.7 601.039V481.039M1800.7 601.039H1920.7M1800.7 481.039V361.039M1800.7 481.039H1920.7M1800.7 361.039V241.039M1800.7 361.039H1920.7M1800.7 241.039V121.039M1800.7 241.039H1920.7M1800.7 121.039V1.03857M1800.7 121.039H1920.7M1800.7 1.03857H1920.7M1920.7 961.039V1081.04M1920.7 961.039V841.039M1920.7 961.039H2040.7M1920.7 1081.04H2040.7M1920.7 841.039V721.039M1920.7 841.039H2040.7M1920.7 721.039V601.039M1920.7 721.039H2040.7M1920.7 601.039V481.039M1920.7 601.039H2040.7M1920.7 481.039V361.039M1920.7 481.039H2040.7M1920.7 361.039V241.039M1920.7 361.039H2040.7M1920.7 241.039V121.039M1920.7 241.039H2040.7M1920.7 121.039V1.03857M1920.7 121.039H2040.7M1920.7 1.03857H2040.7M2040.7 961.039V1081.04M2040.7 961.039V841.039M2040.7 961.039H2160.7M2040.7 1081.04H2160.7M2040.7 841.039V721.039M2040.7 841.039H2160.7M2040.7 721.039V601.039M2040.7 721.039H2160.7M2040.7 601.039V481.039M2040.7 601.039H2160.7M2040.7 481.039V361.039M2040.7 481.039H2160.7M2040.7 361.039V241.039M2040.7 361.039H2160.7M2040.7 241.039V121.039M2040.7 241.039H2160.7M2040.7 121.039V1.03857M2040.7 121.039H2160.7M2040.7 1.03857H2160.7M2160.7 961.039V1081.04M2160.7 961.039V841.039M2160.7 961.039H2280.7M2160.7 1081.04H2280.7M2160.7 841.039V721.039M2160.7 841.039H2280.7M2160.7 721.039V601.039M2160.7 721.039H2280.7M2160.7 601.039V481.039M2160.7 601.039H2280.7M2160.7 481.039V361.039M2160.7 481.039H2280.7M2160.7 361.039V241.039M2160.7 361.039H2280.7M2160.7 241.039V121.039M2160.7 241.039H2280.7M2160.7 121.039V1.03857M2160.7 121.039H2280.7M2160.7 1.03857H2280.7M2280.7 961.039V1081.04M2280.7 961.039V841.039M2280.7 961.039H2400.7M2280.7 1081.04H2400.7M2280.7 841.039V721.039M2280.7 841.039H2400.7M2280.7 721.039V601.039M2280.7 721.039H2400.7M2280.7 601.039V481.039M2280.7 601.039H2400.7M2280.7 481.039V361.039M2280.7 481.039H2400.7M2280.7 361.039V241.039M2280.7 361.039H2400.7M2280.7 241.039V121.039M2280.7 241.039H2400.7M2280.7 121.039V1.03857M2280.7 121.039H2400.7M2280.7 1.03857H2400.7M2400.7 961.039V1081.04M2400.7 961.039V841.039M2400.7 961.039H2520.7M2400.7 1081.04H2520.7M2400.7 841.039V721.039M2400.7 841.039H2520.7M2400.7 721.039V601.039M2400.7 721.039H2520.7M2400.7 601.039V481.039M2400.7 601.039H2520.7M2400.7 481.039V361.039M2400.7 481.039H2520.7M2400.7 361.039V241.039M2400.7 361.039H2520.7M2400.7 241.039V121.039M2400.7 241.039H2520.7M2400.7 121.039V1.03857M2400.7 121.039H2520.7M2400.7 1.03857H2520.7M2520.7 961.039V1081.04M2520.7 961.039V841.039M2520.7 961.039H2640.7M2520.7 1081.04H2640.7V961.039M2520.7 841.039V721.039M2520.7 841.039H2640.7M2520.7 721.039V601.039M2520.7 721.039H2640.7M2520.7 601.039V481.039M2520.7 601.039H2640.7M2520.7 481.039V361.039M2520.7 481.039H2640.7M2520.7 361.039V241.039M2520.7 361.039H2640.7M2520.7 241.039V121.039M2520.7 241.039H2640.7M2520.7 121.039V1.03857M2520.7 121.039H2640.7M2520.7 1.03857H2640.7V121.039M2640.7 961.039V841.039M2640.7 841.039V721.039M2640.7 721.039V601.039M2640.7 601.039V481.039M2640.7 481.039V361.039M2640.7 361.039V241.039M2640.7 241.039V121.039" stroke="white"/>
</svg>
